<?xml version="1.0" encoding="UTF-8"?>
<svg id="Capa_2" data-name="Capa 2" xmlns="http://www.w3.org/2000/svg" viewBox="0 0 196.97 196.97">
  <defs>
    <style>
      .cls-1 {
        stroke: #c6c6c6;
        stroke-miterlimit: 10;
      }

      .cls-1, .cls-2 {
        fill: #fff;
      }

      .cls-3 {
        fill: #1d1d1b;
      }

      .cls-3, .cls-4, .cls-2 {
        stroke-width: 0px;
      }

      .cls-4 {
        fill: #e42821;
      }
    </style>
  </defs>
  <g id="Capa_1-2" data-name="Capa 1">
    <g>
      <circle class="cls-1" cx="98.48" cy="98.48" r="97.98"/>
      <circle class="cls-3" cx="98.48" cy="98.48" r="90.72"/>
      <g id="Logo_Macuto_Negro" data-name="Logo Macuto Negro">
        <g id="Logo">
          <g id="EME">
            <path class="cls-2" d="M150.72,51.92c-1.29.04-2.59.08-3.89.12-2.32.08-4.62.3-6.91.63-4.77.69-9.44,1.75-13.97,3.43-4.22,1.57-8.3,3.39-12.13,5.75-2.77,1.71-5.46,3.51-7.96,5.61-2.19,1.85-4.35,3.72-6.24,5.88-1.02,1.17-2.01,2.39-3,3.59-.06.07-.09.16-.15.27-.15-.17-.22-.25-.29-.33-1.26-1.42-2.49-2.86-3.79-4.25-1.91-2.03-4.02-3.84-6.18-5.6-2.64-2.15-5.49-3.99-8.43-5.69-4.2-2.44-8.66-4.32-13.27-5.82-6.53-2.13-13.24-3.33-20.11-3.54-.7-.02-1.41,0-2.16,0,0,.22,0,.39,0,.57,0,2.2.03,4.41.03,6.61,0,16.92,0,33.84,0,50.77,0,.34-.03.67-.02,1.01.03,1.42.51,2.33,1.85,2.78.83.28,1.67.29,2.52.04.65-.2,1.15-.59,1.44-1.2.22-.47.33-.97.33-1.5-.01-5.95-.02-11.9-.04-17.86,0-2.04-.02-4.09-.02-6.13,0-9.51,0-19.01-.01-28.52v-.51c.27.02.47.02.68.05,1.4.19,2.81.35,4.2.6,4.07.71,8.08,1.68,11.96,3.14,4.09,1.53,8.05,3.31,11.75,5.65,2.72,1.73,5.36,3.56,7.76,5.71,2.03,1.82,4,3.68,5.7,5.81.68.86,1.34,1.73,2,2.6.18.24.34.5.49.74-.72,1.28-1.43,2.53-2.16,3.82-.14-.18-.24-.31-.33-.44-.47-.65-.94-1.31-1.42-1.94-1.5-1.97-3.19-3.79-4.92-5.56-2.06-2.09-4.34-3.93-6.7-5.66-2.92-2.15-6.09-3.92-9.37-5.44-4.79-2.23-9.81-3.76-15.06-4.47-.21-.03-.43-.03-.66-.04-.01.18-.02.29-.02.41-.01,1.42-.03,2.83-.03,4.25,0,3.54,0,7.08,0,10.62,0,4.18-.02,8.36-.03,12.55-.01,6.84-.02,13.67-.03,20.51,0,.24,0,.48.03.72.12,1.11.73,1.83,1.81,2.12.74.19,1.5.22,2.25.07,1.14-.23,1.76-.87,1.97-2.03.04-.24.06-.48.06-.72.01-2.51.02-5.02.02-7.53,0-10.95,0-21.91,0-32.86v-.66c.23.06.41.1.6.15,2.67.78,5.29,1.7,7.79,2.94,3.24,1.6,6.34,3.41,9.17,5.67,2.26,1.81,4.41,3.74,6.34,5.91,1.91,2.14,3.67,4.4,5.12,6.87.15.25.28.5.43.75.09.15.1.28.04.45-.48,1.4-.95,2.8-1.43,4.2-.06.19-.14.37-.25.67-2.46-5.14-5.88-9.41-9.99-13.17-4.26-3.9-11.58-8.14-13.96-8.74v.49c0,5.5-.01,11-.02,16.5,0,4.42-.02,8.85-.03,13.27,0,.11,0,.23,0,.34-.01,1.66-.05,3.31-.03,4.97.02,1.2.68,2.03,1.81,2.41.78.26,1.58.28,2.37.03.64-.2,1.15-.58,1.47-1.17.27-.5.41-1.04.41-1.62,0-4.29.04-8.59.04-12.88,0-3.94-.02-7.88-.02-11.82,0-.14.01-.27.02-.47,2.93,1.81,5.44,4,7.61,6.56,5.28,6.21,7.88,13.45,8.19,21.56h66.85c.11-.7.07-61.58-.05-61.96Z"/>
          </g>
          <path class="cls-4" d="M145.29,103.93v.23c0,1.06-.02,2.81-.03,4.09h-7.23c-.1,0-.19,0-.29,0-.08,0-.17,0-.25,0h-8.51s-.32,0-.32,0h-18.69s-.36,0-.36,0h-21.22l.22-1.16c.05-.24.08-.4.09-.55.05-.38.13-.76.21-1.13.14-.65.29-1.29.44-1.94.24-1.01.51-2.02.81-3.02l.1-.35c.2-.67.39-1.34.62-2l.58-1.68c.25-.71.54-1.4.83-2.09l.77-1.79c.29-.67.61-1.34.95-1.99.47-.91.95-1.82,1.44-2.72.19-.34.39-.68.6-1.01l1.35-2.13c.73-1.14,1.59-2.34,2.65-3.67.93-1.17,1.96-2.35,3.05-3.51l.22-.22.15-.17.1-.14.32-.32c.48-.49.96-.97,1.45-1.44,1.15-1.1,2.42-2.2,3.88-3.36,1.09-.86,2.22-1.71,3.47-2.57.69-.48,1.41-.93,2.13-1.37,1.13-.69,2.28-1.36,3.43-2.02,1.05-.6,2.18-1.19,3.47-1.79,1.79-.84,3.31-1.51,4.77-2.09,1.67-.67,3.41-1.28,5.32-1.89,1.77-.56,3.65-1.08,5.58-1.55,1.02-.24,2.04-.47,3.07-.67.69-.14,1.38-.27,2.08-.37,0,0,2.51-.39,2.73-.42v30.21s0,.33,0,.33v16.29Z"/>
          <path id="M" class="cls-2" d="M46.69,144.5h-4.89c-.1-.37.76-10.14,1.03-12.81.43-4.26.77-8.54,1.16-12.82h6.77c.83,5.66,1.69,11.3,2.15,16.99.56-5.7,1.51-11.34,2.51-16.99h6.57c.73,8.54,1.45,17.05,2.18,25.56-.37.12-4.49.14-5.13.04-.36-6.69-.75-13.39-.95-20.1-.03,0-.06,0-.1,0-1.08,6.69-2.16,13.39-3.25,20.11h-3.61c-1.05-6.76-2.1-13.52-3.15-20.27-.02,0-.05,0-.07,0-.41,6.75-.82,13.49-1.23,20.29Z"/>
          <path id="A" class="cls-2" d="M76.44,118.65h-5.28c-2.01,8.62-4.01,17.21-6.02,25.85h5.31c.25-1.51.51-3,.76-4.51h5.07c.15.77.3,1.51.45,2.25.15.75.31,1.5.46,2.24.69.1,4.93.07,5.3-.04-2.01-8.59-4.02-17.19-6.04-25.78ZM72.11,136.01c.53-3.88,1.06-7.73,1.63-11.57.04,0,.08,0,.11,0,.58,3.84,1.16,7.69,1.75,11.56h-3.49Z"/>
          <path id="C" class="cls-2" d="M96.4,139.4c.03,1.78.06,3.48.09,5.21-.4.2-.84.22-1.26.28-1.91.29-3.78.17-5.6-.51-2.05-.77-3.66-2.09-4.89-3.91-1.14-1.68-1.88-3.52-2.18-5.51-.51-3.36-.17-6.63,1.13-9.79.79-1.91,1.94-3.55,3.63-4.78,1.96-1.42,4.15-1.99,6.55-1.72.83.09,1.65.26,2.45.53v4.62c-.2-.05-.36-.1-.52-.14-1.09-.32-2.18-.38-3.28-.1-1.02.26-1.81.88-2.5,1.64-.93,1.03-1.46,2.27-1.75,3.61-.49,2.25-.56,4.5.16,6.72.66,2.05,1.92,3.55,4.07,4.15,1.1.3,2.2.22,3.28-.1.18-.05.36-.1.62-.18Z"/>
          <path id="U" class="cls-2" d="M104.82,119.05c0,.41,0,.79,0,1.17.04,3.88.08,7.75.12,11.63.02,1.61.03,3.22.09,4.82.03.67.15,1.34.28,2,.06.29.19.58.33.85.28.53.74.85,1.32.96.65.12,1.31.12,1.97-.01.75-.15,1.22-.61,1.46-1.33.22-.65.29-1.32.3-2,.02-1.21.01-2.41.01-3.62,0-4.62,0-9.23,0-13.85,0-.19,0-.38,0-.57.37-.12,4.64-.14,5.19-.03,0,.15.02.3.02.46,0,5.29,0,10.58,0,15.88,0,1.54-.06,3.09-.39,4.6-.11.5-.24,1-.43,1.48-.71,1.83-2.11,2.82-3.97,3.24-1.44.32-2.9.35-4.37.25-.93-.06-1.85-.2-2.75-.49-1.82-.59-3.02-1.76-3.58-3.6-.27-.88-.44-1.78-.52-2.69-.07-.83-.11-1.67-.11-2.5,0-5.36,0-10.71,0-16.07v-.59h5.02Z"/>
          <path id="T" class="cls-2" d="M118.13,123.99v-4.77s.02-.02.04-.04c.01-.01.02-.03.04-.03.08-.01.16-.03.24-.03,4.25,0,8.49,0,12.74,0,.05,0,.09.02.17.04v4.8h-3.99v20.96c-.39.11-4.43.14-5.25.05-.04-1.16-.01-2.32-.02-3.49,0-1.16,0-2.32,0-3.47v-14.04h-3.96Z"/>
          <path id="O" class="cls-2" d="M149.8,126.35c-.35-1.54-.85-3.03-1.74-4.37-1.06-1.59-2.47-2.69-4.35-3.15-1.27-.31-2.55-.32-3.83-.09-2.51.44-4.36,1.82-5.61,4.01-1,1.74-1.48,3.65-1.75,5.63-.25,1.92-.28,3.85-.12,5.77.2,2.44.73,4.79,1.97,6.95.88,1.53,2.08,2.69,3.72,3.36,1.37.56,2.8.68,4.26.51,2.38-.27,4.26-1.37,5.6-3.36.71-1.06,1.21-2.23,1.55-3.46.61-2.15.8-4.36.79-6.88.03-1.46-.12-3.21-.51-4.92ZM144.88,136.06c-.15.83-.37,1.63-.78,2.37-.36.65-.84,1.19-1.56,1.45-1.13.4-2.71.33-3.71-1.06-.6-.83-.9-1.77-1.1-2.76-.28-1.39-.35-2.8-.35-4.36.02-1.52.09-3.17.53-4.78.28-1.01.7-1.92,1.46-2.67.98-.97,2.94-.96,3.91.02.83.83,1.23,1.87,1.49,2.98.28,1.21.38,2.44.4,3.68.03,1.72,0,3.44-.31,5.14Z"/>
          <g>
            <path class="cls-2" d="M151.6,118.59c0,6.58,9.94,6.56,9.96.01.01-6.6-9.95-6.65-9.96-.01ZM156.67,122.37c-5.65-.1-4.15-9.33,1.25-7.29,3.46,1.44,2.47,7.27-1.25,7.29Z"/>
            <path class="cls-2" d="M157.84,118.66c.54-.35.98-.71.84-1.4-.42-1.54-2.77-1.09-3.97-.88v4.58c.46-.02.8-.04,1.17-.05.03-.57.05-1.04.08-1.5,1.5-.33,1.51,1.12,1.5,1.5h1.36c-.15-.86-.22-1.7-.99-2.24ZM156.02,118.35v-.99c1.41-.7,1.72,1.25,0,.99Z"/>
          </g>
        </g>
      </g>
    </g>
  </g>
</svg>