<?xml version="1.0" encoding="UTF-8"?>
<svg xmlns="http://www.w3.org/2000/svg" xmlns:xlink="http://www.w3.org/1999/xlink" viewBox="0 0 196.97 196.97">
  <defs>
    <style>
      .cls-1, .cls-2, .cls-3, .cls-4, .cls-5, .cls-6, .cls-7 {
        stroke-width: 0px;
      }

      .cls-1, .cls-8, .cls-6 {
        fill: #fff;
      }

      .cls-1, .cls-4 {
        fill-rule: evenodd;
      }

      .cls-9 {
        isolation: isolate;
      }

      .cls-2 {
        fill: none;
      }

      .cls-10 {
        filter: url(#drop-shadow-1);
      }

      .cls-11 {
        clip-path: url(#clippath-1);
      }

      .cls-3 {
        fill: url(#Degradado_sin_nombre_5);
        mix-blend-mode: overlay;
        opacity: .35;
      }

      .cls-8 {
        stroke: #c6c6c6;
        stroke-miterlimit: 10;
      }

      .cls-4 {
        fill: #000;
      }

      .cls-5 {
        fill: #ad2712;
      }

      .cls-12 {
        clip-path: url(#clippath);
      }

      .cls-7 {
        fill: #ee4e2a;
      }
    </style>
    <clipPath id="clippath">
      <circle class="cls-2" cx="98.48" cy="98.48" r="87.19"/>
    </clipPath>
    <clipPath id="clippath-1">
      <path class="cls-2" d="M188.05,8.45H8.47v129.99c13.41-29.18,48.91-50.03,90.59-50.03s74.5,19.31,88.98,46.78V8.45Z"/>
    </clipPath>
    <radialGradient id="Degradado_sin_nombre_5" data-name="Degradado sin nombre 5" cx="-128.75" cy="-408.17" fx="-128.75" fy="-408.17" r="74.9" gradientTransform="translate(313.08 299.83) scale(1.65 .7)" gradientUnits="userSpaceOnUse">
      <stop offset="0" stop-color="#ffed00"/>
      <stop offset="1" stop-color="#ffed00" stop-opacity="0"/>
    </radialGradient>
    <filter id="drop-shadow-1" filterUnits="userSpaceOnUse">
      <feOffset dx="0" dy="80"/>
      <feGaussianBlur result="blur" stdDeviation="30"/>
      <feFlood flood-color="#000" flood-opacity=".3"/>
      <feComposite in2="blur" operator="in"/>
      <feComposite in="SourceGraphic"/>
    </filter>
  </defs>
  <g class="cls-9">
    <g id="Capa_2" data-name="Capa 2">
      <g id="Capa_1-2" data-name="Capa 1">
        <g>
          <circle class="cls-8" cx="98.48" cy="98.48" r="97.98"/>
          <g class="cls-12">
            <g>
              <rect class="cls-5" x="8.45" y="9.83" width="180.08" height="178.69"/>
              <path class="cls-7" d="M188.52,8.45H8.45v103.38c13.45-10.96,49.04-18.79,90.84-18.79s74.71,7.25,89.23,17.56V8.45Z"/>
              <g class="cls-11">
                <ellipse class="cls-3" cx="100.42" cy="12.5" rx="125.53" ry="54.13"/>
              </g>
              <g class="cls-10">
                <path class="cls-6" d="M34.99,70.72c40.53-3.66,83.28-5.42,127.48.47,4.7,9.79,10.75,9.59,8.91,11.62-.16,5.92,5.11,10.49,8.48,14.22,2.17,3.62,2.48,8.44.7,11.15-3.1,3.52-6.25,4.94-7.16,7.06-3.11,3.82-.77,5.5-1.9,7.66-4.41.21-6.95,4.34-9.08,7.83-34.72-3.46-77.08-7.34-127.97.28-4.26-7.88-5.35-6.82-9.64-8.73,2.95-8.7-8.5-10.97-9.27-15.98-2.59-12.36,11.97-13.31,9.34-24.67,5.65-2.09,8.08-6.99,10.1-10.91Z"/>
                <path class="cls-4" d="M36.56,72.8c39.57-3.43,81.3-5.08,124.45.44,4.59,9.18,10.49,8.99,8.7,10.9-.15,5.55,4.99,9.84,8.28,13.33,2.12,3.4,2.42,7.92.69,10.45-3.03,3.3-6.1,4.63-6.99,6.62-3.04,3.58-.75,5.16-1.86,7.19-4.3.2-6.78,4.07-8.86,7.35-33.89-3.24-75.25-6.89-124.92.26-4.16-7.39-5.23-6.4-9.41-8.18,2.88-8.15-8.3-10.29-9.05-14.99-2.53-11.59,11.69-12.48,9.12-23.13,5.52-1.96,7.88-6.55,9.86-10.23"/>
                <path class="cls-1" d="M52.09,100.27c1.78-.84,4.87-.35,5.02,2.74-.34,3.59-2.85,4.51-4.86,4.43,0-2.36-.16-4.82-.16-7.18M57.48,97.51c2.9,2.23,3.31,4.39,3.04,6.39-.56,4.12-5.71,7.28-10.01,6.82-.74.08-2.67.92-1.49-1.42-.13-6.1-.26-12.2-.39-18.3-.89-1.52.02-1.5.44-1.5.8-.02,1.6-.04,2.39-.07,1.41-.08.55,1.2.37,1.38.05,2.01.11,4.02.16,6.03,2.68.07,4.99-3.74,4.97-5.45.22-2.04-.74-3.69-1.78-4.56-3.75-1.83-7.72-.23-9.91,3.16-1.12,1.82-.82,3.4.34,5.78,1.41,1.09,1.29,1.27.36,1.79-.37.2-1.34.99-1.82,1.14-1.23.73-1.17-.32-1.45-1.26-5.34-8.72,5-16.12,12.28-14.27,4.03,1.08,8.51,7.13,2.5,14.32Z"/>
                <path class="cls-1" d="M69.29,92.13c2.85,0,5.16,3.17,5.16,7.09s-2.31,7.09-5.16,7.09-5.16-3.17-5.16-7.09,2.31-7.09,5.16-7.09M69.26,88.88c4.6,0,8.33,4.6,8.33,10.29s-3.73,10.29-8.33,10.29-8.33-4.6-8.33-10.29,3.73-10.29,8.33-10.29Z"/>
                <path class="cls-1" d="M87.97,88.82c1.29-.03,1.26-.05,1.3.7.01.3.02,1.63,0,2.09.15.74-.3,1.49-1.04.62-3.67-2.28-7.32,1.85-7.25,6.7.06,3.79,2.81,8.64,7.12,6.3,1.26-.89,1.01-.1,1.09,1.4.22,2.17-.04,1.75-1.03,1.84-4.36,1.66-10.24-1.94-10.13-9.42-.05-7.9,5.85-11.76,9.95-10.24"/>
                <path class="cls-1" d="M89.98,88.51c1.01,0,2.02.02,3.03.03,1.05-.07.38,1.19.13,1.59,0,1.72,0,3.44.01,5.17.03.48-.09.46.31.45l5.06.06c.26-.04.57.13.52-.59.01-1.67.03-3.35.04-5.02-.73-1.6-.11-1.52.45-1.53.73,0,1.47.01,2.2.02.61-.06,1.15.24.45,1.51-.05,5.71-.11,11.41-.16,17.12.08.55.72,1.56-.1,1.51l-2.9-.02c-.47.01-.82-.27-.02-1.6l-.07-8.39-5.7.03c-.06,2.78-.12,5.56-.17,8.34.9,1.42.31,1.7-.42,1.69l-2.47-.07c-.67-.23-.63-.82-.05-1.61l-.02-17.09c-.66-1.11-.33-1.49-.1-1.59"/>
                <path class="cls-1" d="M103.23,95.33c.01-1.67.03-3.35.04-5.02-.73-1.6-.11-1.52.45-1.53.73,0,1.47.01,2.2.02.61-.06,1.15.24.45,1.51-.05,5.71-.11,11.41-.16,17.12.19.52.88,1.19.02,1.58l-2.99.05c-.26-.08-1-.1-.05-1.75-.1-12.98.17-10.19.04-11.99"/>
                <path class="cls-1" d="M107.42,95.43c.02-1.67.03-3.34.05-5.01-.73-1.6-.19-1.52.37-1.53.74,0,1.48.01,2.22.02.62-.06,1.35.18.79,1.28,1.6,3.83,3.21,7.66,4.81,11.49.32.49.5-.06.51-.29l.3-17.67c-.7-1.13-.37-1.59.55-1.44.73.03,1.46.06,2.19.09,1.05.05.56,1.08.22,1.56-.18,8.06-.35,16.12-.53,24.18.92,1.56.14,1.42-.32,1.41l-2.37-.09c-.44.08-.78-.23-.32-1.07l-4.96-11.36c-.11-.25-.47-.17-.47.02-.03,3.5-.07,6.99-.1,10.49.19.52.88,1.19.02,1.58l-3.01.05c-.26-.08-.76-.19.2-1.83-.11-12.96,0-10.09-.13-11.89"/>
                <path class="cls-1" d="M129.9,90.68c1.29-.03,1.26-.05,1.3.7.01.3.02,1.63,0,2.09.15.74-.3,1.49-1.04.62-4.17-2.7-7.32,1.85-7.25,6.7.06,3.79,2.87,7.37,6.64,6.01,1.26-.89,1.01-.1,1.09,1.4.22,2.17-.04,1.75-1.03,1.84-3.59,1.06-9.1-2.09-9.65-9.13-.05-7.9,5.18-12.39,9.95-10.24"/>
                <path class="cls-1" d="M131.79,90.62c1.01.04,2.02.09,3.03.13.9.18.33,1.2.07,1.59-.06,1.72-.16,3.03-.22,4.75.01.48-.07.72.33.72l4.78.4c.26-.03.67.18.64-.54.07-1.67.08-3.19.15-4.86-.67-1.63.07-1.38.63-1.36.73.03,1.17.19,1.91.23.61-.04,1.16.37.42,1.61-.26,5.7-.12,10.85-.38,16.55.06.55.49,1.89-.34,1.82l-2.52-.17c-.47,0-1-.58-.16-1.88l.21-7.58c0-.33.05-.72-.63-.77l-4.46-.37c-.58-.05-.59.02-.62.58-.15,2.64-.11,4.96-.26,7.6.85,1.45.31,1.74-.42,1.7l-2.37-.17c-.66-.26-.67-.97-.07-1.74l.31-16.64c-.62-1.13-.27-1.5-.05-1.6"/>
                <path class="cls-1" d="M152.96,103.26l-1.68-.68-3.17-.34c-.58-.05-.86-.17-.85.39.07,3.08.15,3.53.04,6.37,0,.07,1.08.38,1.83.43,5.86.41,5.7-.2,5.67.65-.01.42-.02,1.53-.1,2.25-.06.54.13.64-.27.6l-7.58-.82-2.6-.28c-.66-.26-.46-1.18.14-1.95l.31-16.64c-.62-1.13-.04-1.32.19-1.41,1.01.04,9.23,1.32,10.24,1.37.68,2.08.3,3.53-.29,3.48-.27-.03-.51-.36-.9-.46-1.44-.36-3.73-.82-6.27-.95-.06,1.72-.08,1.14-.13,2.86.01.48-.04,1.12.36,1.12,1.71.26,3.33.63,5.14.4.26-.03-.03,4.34-.06,3.62"/>
                <path class="cls-1" d="M61.14,81.17l2.97-.02v.79s-2.33,0-2.33,0v.72c.49,0,.99,0,1.49,0,.12-.04.25,0,.24.16v.59c-.04.12-.16.1-.27.03l-1.4-.04v1.62s1.98-.08,1.98-.08c.41-.3.57,1.11.07.92-.97.04-1.95.04-2.92.08-.14.01-.18-.1-.13-.21l-.02-4.09c-.18-.17-.26-.62.33-.49"/>
                <polygon class="cls-1" points="64.36 81 65.29 80.99 65.4 86.08 67.48 86.04 67.52 87.02 64.4 87.07 64.36 81"/>
                <path class="cls-1" d="M60.85,86.55l3.32-.08s.06.02.06.05v.58s-.01.06-.04.06l-3.32.08s-.06-.02-.06-.05v-.58s.01-.06.04-.06"/>
                <path class="cls-1" d="M70.03,83.56c14.8-.51,28.86-.5,43.45.2.94-.6,1.2-.34,1.3.04,0,1,.02,1.99.03,2.99.07.61-.3,1.08-1.73.23-13.63-.81-28.1-.99-42.93-.39-.63.18-1.5,1.01-1.73-.18,0-1.01.01-2.02.02-3.04,0-.91,1.18-.02,1.6.14"/>
                <path class="cls-1" d="M50.8,113.72c8.91-.85,17.64-1.6,28.06-1.84,1.05-.7,1.47-.29,1.48.02,0,.68,0,1.89.01,2.58.05.42-.41.65-1.39.07-9.65,0-18.14.96-27.86,1.77-.43.13-1.78.85-1.94.04,0-.7-.02-1.6-.02-2.3.02-.94,1.36-.44,1.65-.32"/>
                <path class="cls-1" d="M126.45,112.57c8.94.53,16.24,1.04,26.53,2.37,1.88-.72,1.82.07,1.79.38l-.06,2.25c-.01.42-.72.69-1.61-.02-9.56-1.36-16.98-1.82-26.72-2.38-.45.06-1.58.74-1.62-.09l.02-2.49c.16-.93,1.39-.17,1.67-.01"/>
                <path class="cls-1" d="M122.62,84.48c10.44.81,19.48,1.9,31.51,3.36,1.93-.78,1.74.39,1.7.7l-.17,2.14c-.02.42-.38,1.51-1.75.19-11.16-1.36-19.98-2.67-31.39-3.35-.52.06-1.72.92-1.63-.54l.02-2.49c.18-.93,1.39-.15,1.71,0"/>
                <path class="cls-1" d="M85.74,110.59v.89c0-.07-.66-.39-1.1-.17-1.21.61-1.23,2.5-.22,3.27.52.4,1.33-.06,1.33-.02v.93c-1.78.41-2.89-.83-2.89-2.52s1.47-2.9,2.88-2.39"/>
                <path class="cls-1" d="M89.05,112.12l.44,1.32-.87.02.43-1.34ZM88.53,110.45h1.07s1.34,5.08,1.34,5.08h-1.02s-.24-1.31-.24-1.31l-1.17.02-.3,1.3-.98-.03,1.3-5.06Z"/>
                <path class="cls-1" d="M106.45,110.65v.89c0-.07-.66-.39-1.1-.17-1.21.61-1.23,2.5-.22,3.27.52.4,1.33-.06,1.33-.02v.93c-1.78.41-2.89-.83-2.89-2.52s1.47-2.9,2.88-2.39"/>
                <path class="cls-1" d="M120.43,112.74l.41,1.33h-.87s.46-1.33.46-1.33ZM119.96,111.05l1.07.03,1.22,5.11-1.02-.04-.21-1.31h-1.17s-.33,1.28-.33,1.28l-.98-.05,1.42-5.03Z"/>
                <rect class="cls-6" x="116.53" y="111.15" width=".79" height="4.9"/>
                <polygon class="cls-1" points="117.13 110.07 117.74 110.07 117.25 110.76 116.68 110.77 117.13 110.07"/>
                <polygon class="cls-1" points="108.02 110.69 110.88 110.69 110.84 111.55 108.87 111.49 108.87 112.47 110.27 112.5 110.27 113.2 108.87 113.18 108.87 114.95 110.78 114.94 110.77 115.8 107.97 115.79 108.02 110.69"/>
                <rect class="cls-6" x="101.33" y="110.52" width=".79" height="4.98"/>
                <path class="cls-1" d="M93.24,111.15c1.54-.03,1.29,2.06,0,2.01v-2.01ZM92.42,110.34c3.54-.25,3.17,2.41,1.94,3.46l.76,1.54h-.92s-.58-1.39-.58-1.39l-.4-.03-.02,1.46-.83-.02c.01-1.68.03-3.36.04-5.03Z"/>
                <path class="cls-1" d="M113.12,111.65c1.54-.03,1.29,2.06,0,2.01v-2.01ZM112.3,110.85c3.54-.25,3.17,2.41,1.94,3.46l.76,1.54h-.92s-.58-1.39-.58-1.39l-.4-.03-.02,1.46-.83-.02c.01-1.68.03-3.36.04-5.03Z"/>
                <polygon class="cls-1" points="96.63 110.39 97.46 110.39 98.88 113.41 98.92 110.36 99.77 110.39 99.74 115.45 98.9 115.45 97.56 112.32 97.52 115.42 96.59 115.41 96.63 110.39"/>
              </g>
            </g>
          </g>
        </g>
      </g>
    </g>
  </g>
</svg>