<?xml version="1.0" encoding="UTF-8"?>
<svg id="Capa_2" data-name="Capa 2" xmlns="http://www.w3.org/2000/svg" viewBox="0 0 196.97 196.97">
  <defs>
    <style>
      .cls-1 {
        fill: #000;
      }

      .cls-1, .cls-2 {
        stroke-width: 0px;
      }

      .cls-2 {
        fill: #f4c70c;
      }

      .cls-3 {
        fill: #fff;
        stroke: #c6c6c6;
        stroke-miterlimit: 10;
      }
    </style>
  </defs>
  <g id="Capa_1-2" data-name="Capa 1">
    <g>
      <circle class="cls-3" cx="98.48" cy="98.48" r="97.98"/>
      <g>
        <path class="cls-1" d="M80.11,57.4v.31c0,5.06-2.4,7.59-7.19,7.59h-39.91s0,7.72,0,7.72h-4.83s0-23.15,0-23.15h44.73c4.79,0,7.19,2.51,7.19,7.53M75.08,57.68v-.09c0-1.64-.75-2.46-2.24-2.46h-39.83s0,4.98,0,4.98h39.83c1.49,0,2.24-.81,2.24-2.43h0Z"/>
        <path class="cls-1" d="M98.62,66.8v6.22s-4.5,0-4.5,0v-4.04c0-1.4-.22-2.41-.67-3.04-.45-.63-1.22-.94-2.31-.94h-5.84s0,8.01,0,8.01h-4.48s0-22.58,0-22.58h11.53c4.14,0,6.21,1.95,6.21,5.86v.36c0,2.39-.88,4.04-2.65,4.95.81.36,1.46.98,1.96,1.84.5.86.75,1.98.75,3.35M93.89,57.75c0-.65-.15-1.17-.44-1.58-.29-.4-.75-.61-1.36-.61h-6.79s0,4.43,0,4.43h6.79c.62,0,1.07-.2,1.36-.61.29-.4.44-.94.44-1.61v-.03Z"/>
        <path class="cls-1" d="M109.92,49.67c1.37,0,2.62.14,3.73.42,1.12.28,2.05.64,2.81,1.1s1.42,1.01,1.98,1.67c.57.66,1.01,1.32,1.33,1.97.32.66.58,1.38.77,2.16.2.78.33,1.48.38,2.1.06.62.08,1.27.08,1.94v.93c0,.66-.03,1.3-.08,1.91-.06.62-.18,1.32-.38,2.11-.2.79-.45,1.52-.76,2.19-.31.67-.75,1.34-1.33,2.01-.57.67-1.23,1.23-1.98,1.7-.75.46-1.69.84-2.81,1.13-1.12.29-2.37.43-3.74.43h-.67c-1.37,0-2.62-.14-3.75-.43-1.13-.29-2.07-.66-2.82-1.13-.75-.46-1.41-1.03-1.98-1.7-.57-.67-1.02-1.34-1.34-2.01-.32-.67-.57-1.4-.76-2.19-.19-.79-.31-1.5-.37-2.11-.06-.62-.08-1.25-.08-1.91v-.93c0-.68.03-1.32.08-1.93.06-.61.18-1.31.37-2.1.19-.79.45-1.52.76-2.18.32-.66.76-1.32,1.33-1.97.57-.66,1.23-1.21,1.98-1.67.76-.45,1.7-.82,2.83-1.1,1.13-.28,2.38-.42,3.75-.42h.67ZM115.84,61.24c0-.58-.05-1.12-.15-1.64-.1-.51-.29-1.05-.57-1.6-.28-.56-.65-1.03-1.1-1.42-.45-.39-1.07-.72-1.85-.97-.64-.21-1.37-.34-2.18-.37-.18,0-.55-.01-.67,0-4.01.11-6.01,2.12-6.01,6.01v.37c0,.74.09,1.44.26,2.1.18.66.48,1.32.9,1.97.42.66,1.08,1.18,1.97,1.57.82.36,1.81.56,2.96.58.1,0,.36,0,.5,0,1.06-.04,1.98-.23,2.76-.56.88-.38,1.54-.89,1.98-1.54.44-.65.75-1.3.92-1.96.18-.66.27-1.36.27-2.1v-.43Z"/>
        <polygon class="cls-1" points="121.63 50.07 128.65 50.07 134.1 64.36 139.57 50.07 146.34 50.07 146.34 73.03 141.46 73.03 141.46 57.14 135.25 73.03 132.6 73.03 126.38 57.14 126.38 73.03 121.63 73.03 121.63 50.07"/>
        <path class="cls-1" d="M157.93,49.67c1.37,0,2.62.14,3.73.42s2.05.64,2.81,1.1c.76.45,1.42,1.01,1.98,1.67.57.66,1.01,1.32,1.33,1.97.32.66.58,1.38.77,2.16.2.78.33,1.48.38,2.1.06.62.08,1.27.08,1.94v.93c0,.66-.03,1.3-.08,1.91-.06.62-.18,1.32-.38,2.11-.2.79-.45,1.52-.76,2.19-.31.67-.75,1.34-1.33,2.01-.57.67-1.23,1.23-1.98,1.7-.75.46-1.69.84-2.81,1.13-1.12.29-2.37.43-3.74.43h-.67c-1.37,0-2.62-.14-3.75-.43-1.13-.29-2.07-.66-2.82-1.13-.75-.46-1.41-1.03-1.98-1.7-.57-.67-1.02-1.34-1.34-2.01-.32-.67-.57-1.4-.76-2.19-.19-.79-.31-1.5-.37-2.11-.06-.62-.08-1.25-.08-1.91v-.93c0-.68.03-1.32.08-1.93.06-.61.18-1.31.37-2.1.19-.79.45-1.52.76-2.18.32-.66.76-1.32,1.33-1.97.57-.66,1.23-1.21,1.98-1.67.76-.45,1.7-.82,2.83-1.1,1.13-.28,2.38-.42,3.75-.42h.67ZM163.84,61.24c0-.58-.05-1.12-.15-1.64-.1-.51-.29-1.05-.57-1.6-.28-.56-.65-1.03-1.1-1.42-.45-.39-1.07-.72-1.85-.97-.64-.21-1.37-.34-2.18-.37-.18,0-.55-.01-.67,0-4.01.11-6.01,2.12-6.01,6.01v.37c0,.74.09,1.44.26,2.1.18.66.48,1.32.9,1.97.42.66,1.08,1.18,1.97,1.57.82.36,1.81.56,2.96.58.1,0,.36,0,.5,0,1.06-.04,1.98-.23,2.76-.56.88-.38,1.54-.89,1.98-1.54.44-.65.75-1.3.92-1.96.18-.66.27-1.36.27-2.1v-.43Z"/>
        <path class="cls-1" d="M42.17,110.46c-1.77,0-3.39-.2-4.86-.61-1.47-.4-2.71-.93-3.71-1.58-1-.65-1.89-1.45-2.67-2.38-.78-.94-1.38-1.89-1.82-2.84-.44-.95-.8-1.98-1.09-3.08-.29-1.1-.48-2.1-.57-2.99-.09-.9-.13-1.79-.13-2.69v-1.26c0-1.39.09-2.7.27-3.95.18-1.24.58-2.63,1.21-4.16.63-1.53,1.45-2.85,2.46-3.95,1.01-1.1,2.46-2.02,4.34-2.77,1.88-.75,4.07-1.13,6.57-1.13h1.22c2.44,0,4.6.33,6.47.98,1.87.65,3.31,1.45,4.34,2.38,1.02.94,1.86,2.02,2.5,3.25.65,1.23,1.06,2.33,1.25,3.3.19.97.28,1.9.28,2.8v.48s-7.36,0-7.36,0c-.06-.35-.13-.66-.22-.93-.09-.27-.32-.72-.69-1.32-.37-.61-.81-1.11-1.34-1.52-.53-.4-1.3-.77-2.32-1.11-1.02-.33-2.2-.5-3.53-.5-1.59,0-2.95.24-4.07.72-1.12.48-1.97,1.13-2.53,1.97-.57.84-.97,1.72-1.21,2.64-.24.93-.36,1.94-.36,3.04v.52c0,1.04.13,2.05.4,3.01.27.97.69,1.91,1.27,2.82.58.91,1.43,1.64,2.56,2.19,1.13.55,2.46.82,3.99.82,4.55,0,7.23-1.86,8.05-5.59.02-.06.03-.1.03-.13h7.36s0,.48,0,.48c0,.95-.1,1.94-.31,2.95-.21,1.01-.64,2.15-1.3,3.4-.66,1.26-1.5,2.36-2.53,3.32-1.03.95-2.48,1.76-4.34,2.43-1.86.66-3.99,1-6.39,1h-1.22s0,0,0,0Z"/>
        <rect class="cls-1" x="59.1" y="77.79" width="6.91" height="32.11"/>
        <path class="cls-2" d="M139.73,92.99v1.26c0,.9-.03,1.77-.1,2.61-.07.84-.22,1.81-.46,2.89-.24,1.08-.54,2.08-.92,2.99-.37.91-.9,1.83-1.59,2.74-.69.91-1.48,1.69-2.38,2.32-.9.63-2.02,1.14-3.37,1.54-1.35.39-2.84.59-4.49.59h-46.3c-1.64,0-3.15-.2-4.5-.59-1.36-.39-2.48-.91-3.38-1.54-.9-.63-1.69-1.4-2.38-2.32-.69-.91-1.22-1.83-1.6-2.74-.38-.91-.69-1.91-.92-2.99-.23-1.08-.38-2.04-.44-2.89-.07-.84-.1-1.71-.1-2.61v-1.26c0-.93.03-1.81.1-2.63.07-.83.22-1.78.44-2.87.23-1.08.53-2.07.92-2.97.38-.9.91-1.8,1.59-2.7.68-.9,1.47-1.66,2.38-2.28.91-.62,2.04-1.12,3.4-1.5,1.36-.38,2.86-.57,4.5-.57h46.3c1.64,0,3.14.19,4.48.57,1.34.38,2.46.88,3.37,1.5.91.62,1.7,1.38,2.38,2.28.68.9,1.21,1.8,1.59,2.7.38.9.69,1.88.93,2.95.24,1.07.39,2.02.46,2.87.07.84.1,1.73.1,2.65M133.52,93.28c0-.79-.06-1.53-.18-2.23-.12-.7-.35-1.43-.69-2.19-.34-.76-.78-1.4-1.32-1.94-.54-.53-1.28-.98-2.21-1.33-.84-.32-1.81-.49-2.91-.52-.12,0-45.44,0-45.55,0-5.1,0-7.66,2.74-7.66,8.22v.51c0,1.01.11,1.97.32,2.87.21.9.57,1.8,1.08,2.7.51.9,1.3,1.61,2.37,2.15,1.07.53,2.37.8,3.89.8.12,0,45.44,0,45.55,0,1.36-.04,2.53-.3,3.5-.78,1.06-.52,1.85-1.22,2.38-2.11.53-.89.89-1.78,1.11-2.68.21-.9.32-1.85.32-2.87v-.59Z"/>
        <polygon class="cls-1" points="148.52 77.76 162.65 98 162.65 77.76 169.49 77.76 169.49 109.94 162.65 109.94 147.63 88.62 147.63 109.94 140.79 109.94 140.79 77.76 148.52 77.76"/>
        <path class="cls-1" d="M53.7,141.08v7.38s-6.14,0-6.14,0c-1.65,0-2.61-1.25-2.88-3.74-.56,1.04-1.53,2.01-2.88,2.9-1.36.89-3.21,1.34-5.56,1.34h-.44c-2.87,0-5-.84-6.39-2.53-1.39-1.68-2.09-3.81-2.09-6.37v-.35c0-2.49.59-4.38,1.78-5.66,1.19-1.28,3.15-2.11,5.88-2.48l8.34-1.16c.77-.13,1.15-.61,1.15-1.41,0-.44-.07-.79-.22-1.06-.15-.27-.59-.53-1.34-.78-.75-.25-1.81-.38-3.19-.38l-12.41.03v-6.3s13.19,0,13.19,0c2.03,0,3.78.18,5.22.56,1.45.37,2.55.83,3.32,1.37.77.54,1.37,1.24,1.8,2.1.43.86.69,1.63.78,2.3.09.67.14,1.5.14,2.48v10.41c0,.91.32,1.36.95,1.36h.98ZM44.48,135.52l-7.22,1.67c-1.02.24-1.73.53-2.14.88-.41.35-.61.9-.61,1.64v.05c0,.84.26,1.57.78,2.17.52.61,1.37.91,2.54.91,1.94,0,3.54-.66,4.78-1.97,1.24-1.31,1.87-2.81,1.87-4.5v-.86Z"/>
        <path class="cls-1" d="M79.35,120.24v6.28s-10.65-.03-11.57.14c-.92.16-2.29,1.36-2.99,2.62-.7,1.26-1.05,2.81-1.05,4.65v13.99s-7.53,0-7.53,0v-27.07s7.46,0,7.46,0v4.78c.32-.7.71-1.41,1.18-2.11.47-.7,1.28-1.43,2.41-2.16,1.14-.74,2.39-1.11,3.76-1.11h8.31Z"/>
        <path class="cls-1" d="M90.34,147.91c-3.17,0-4.76-2.51-4.76-7.52v-11.65s-3.76,0-3.76,0v-7.27s3.76,0,3.76,0v-7.72s7.88,0,7.88,0v7.72s3.8,0,3.8,0v7.27s-3.8,0-3.8,0v9.58c0,.79.11,1.37.32,1.74.21.38.64.57,1.29.57h2.18s0,7.27,0,7.27h-6.91s0,0,0,0Z"/>
        <path class="cls-1" d="M169.65,132.75h-61.52c.49,4.28,2.6,7.39,6.33,7.39h.03c.93,0,43.67-.12,44.39-.37.72-.24,1.28-.54,1.68-.89.4-.35.73-.73.98-1.16.26-.43.43-.77.52-1.04.09-.26.15-.52.17-.76h7.32s0,.06,0,.06c0,1.02-.08,2.03-.23,3.02-.16,1-.5,2.09-1.03,3.27-.53,1.18-1.22,2.21-2.06,3.08-.84.88-2.04,1.61-3.58,2.2-1.54.59-3.33.89-5.38.89h-43.81c-2.31,0-4.31-.46-5.99-1.37-1.69-.92-3-2.19-3.93-3.82-.93-1.63-1.61-3.4-2.05-5.31-.43-1.91-.65-4.01-.65-6.29v-1.34c0-2.24.2-4.3.6-6.17.4-1.87,1.05-3.61,1.95-5.22.9-1.61,2.19-2.87,3.86-3.79,1.68-.92,3.68-1.37,6.01-1.37h43.94c8.3,0,12.45,5.9,12.45,17.71v1.29ZM162.16,127.1c-.5-3.5-2.32-5.51-5.44-5.7-.18-.01-42.27-.02-42.46-.02h-.03c-3.37,0-5.36,2.01-5.96,5.72h53.9Z"/>
      </g>
    </g>
  </g>
</svg>