<?xml version="1.0" encoding="UTF-8"?>
<svg id="Capa_2" data-name="Capa 2" xmlns="http://www.w3.org/2000/svg" viewBox="0 0 196.97 196.97">
  <defs>
    <style>
      .cls-1 {
        fill: #f08436;
      }

      .cls-1, .cls-2, .cls-3 {
        stroke-width: 0px;
      }

      .cls-4 {
        stroke: #c6c6c6;
        stroke-miterlimit: 10;
      }

      .cls-4, .cls-2 {
        fill: #fff;
      }

      .cls-3 {
        fill: #2c2d6e;
      }
    </style>
  </defs>
  <g id="Capa_1-2" data-name="Capa 1">
    <g>
      <circle class="cls-4" cx="98.48" cy="98.48" r="97.98"/>
      <g>
        <rect class="cls-1" x="64.8" y="88.44" width="21.76" height="21.76" rx="4.74" ry="4.74"/>
        <path class="cls-3" d="M28.49,97.17c-2.32,0-3.06.87-3.2,2.52v10.83h-4.61v-16.52h4.61v1.88c.5-.77,1.65-1.88,5.05-1.88h1.64c5.55,0,7.91.98,7.91,5.08v11.44h-4.58v-10.7c0-2.05-1.11-2.66-3.9-2.66h-2.92Z"/>
        <path class="cls-3" d="M41.66,110.52v-15.98c0-4.31,2.09-5.15,7.91-5.15h5.72v2.59h-4.81c-3.26,0-4.21.4-4.21,2.66v1.01h9.02v2.56h-9.02v12.31h-4.61Z"/>
        <path class="cls-3" d="M57.74,110.52v-21.12h4.58v21.12h-4.58Z"/>
        <path class="cls-3" d="M88.05,110.52v-16.52h4.58v1.88c.5-.71,1.48-1.88,5.08-1.88h3.75s0,3.16,0,3.16h-5.8c-2.12,0-2.89.91-3.03,2.52v10.83h-4.58Z"/>
        <path class="cls-3" d="M103.04,110.52v-16.52h4.64v16.52h-4.64ZM103.17,89.63h0c0-1.13.92-2.05,2.05-2.05h.37c1.13,0,2.05.92,2.05,2.05h0c0,1.13-.92,2.05-2.05,2.05h-.37c-1.13,0-2.05-.92-2.05-2.05Z"/>
        <path class="cls-3" d="M117.58,97.17c-2.32,0-3.06.87-3.2,2.52v10.83h-4.61v-16.52h4.61v1.88c.5-.77,1.65-1.88,5.05-1.88h2.3c5.55,0,7.91.98,7.91,5.08v11.44h-4.58v-10.7c0-2.05-1.11-2.66-3.9-2.66h-3.58Z"/>
        <path class="cls-3" d="M139.54,110.52c-5.55,0-7.84-1.45-7.84-5.85v-5.62c0-3.57,2.46-5.05,7.3-5.05h11.41c4.1,0,5.62,1.38,5.62,4.37v1.55c0,3.13-1.11,3.94-4.98,3.94h-14.84v.57c0,2.46,1.18,3.16,4.51,3.16h14.33v2.93h-15.51ZM148.96,101.84c1.95,0,2.59-.4,2.59-1.88v-.84c0-1.48-.81-2.15-2.89-2.15h-8.98c-2.29,0-3.47.74-3.47,2.49v2.39h12.75Z"/>
        <path class="cls-3" d="M177.36,101.27c5.01,0,6.43,1.08,6.43,4.14v.81c0,3.36-1.48,4.31-6.43,4.31h-23.23v-2.93h21.75c2.56,0,3.43-.34,3.43-1.92v-.47c0-1.58-.87-1.95-3.43-1.95h-10.73c-4.54,0-6.39-.91-6.39-4.04v-1.11c0-3.26,1.85-4.1,6.53-4.1h13.96c1.64,0,2.96,1.33,2.96,2.96h0s-15.41,0-15.41,0c-2.59,0-3.43.34-3.43,1.92v.44c0,1.58.84,1.95,3.43,1.95h10.56Z"/>
        <path class="cls-3" d="M14.81,86.14v19.72c0,2.57,2.08,4.65,4.65,4.65h0-.02v-19.68c0-2.57-2.07-4.66-4.63-4.69h0Z"/>
        <path class="cls-3" d="M60.49,113.13l3.62-2.92,11.06-22.41h1.03s11.06,22.41,11.06,22.41l3.62,2.92v.59s-11.62,0-11.62,0v-.59s3.38-2.73,3.38-2.73l-6.95-15.06-7.06,15.22,3.19,2.57v.59s-11.33,0-11.33,0v-.59Z"/>
        <path class="cls-2" d="M79.17,96.25c-1-.38-2.56-1.25-2.67-1.27-1.57-.21-1.03,1.87-.93,3.01-.75,1.87-1.48,3.73-2.21,5.59.29.02.58.03.88.03.07,1.32.13,2.63.22,3.94-.09,0-.16-.01-.23-.02-.02-.51-.04-1.03-.07-1.54-.34.01-.69.01-1.02,0,.01.18.02.35.04.51,0,.32.04.63.06.93-.13,0-.24,0-.35,0-.03-.47-.06-.94-.1-1.42-.6.11-1.2.22-1.78.32.25,1.35.51,2.54.79,3.87h8.35c.16-1.37.26-2.37.42-3.74-.57-.08-1.14-.16-1.69-.25,0,.55-.02,1.1-.01,1.64-.11-.01-.23-.03-.34-.06.04-.53.08-1.05.14-1.58-.25-.02-.49-.04-.74-.06-.05.55-.11,1.09-.15,1.63-.07,0-.11-.01-.16-.03.01-.55.02-1.1.05-1.66.02-.82.04-1.63.05-2.46.24,0,.48,0,.72,0,.13,0-1.58-3.11-2.56-5.66-.05-.33-.09-.66-.12-1-.06-.55,2.05.28,2.85.47.84.2,1.5-.32,2.07-.45.23-.04,0-.18-1.48-.73Z"/>
        <g>
          <path class="cls-1" d="M24.89,83.24v.7h-3.5v1.4h3.15v.7h-3.15v1.4h3.5v.7h-4.2v-4.9h4.2Z"/>
          <path class="cls-1" d="M29.56,88.15h-.74l-1.91-4.9h.76l1.52,3.89,1.52-3.89h.76l-1.91,4.9Z"/>
          <path class="cls-1" d="M37.7,83.24v.7h-3.5v1.4h3.15v.7h-3.15v1.4h3.5v.7h-4.2v-4.9h4.2Z"/>
          <path class="cls-1" d="M40.61,84.49v3.65h-.7v-4.9h.71l2.44,3.65v-3.65h.7v4.9h-.71l-2.44-3.65Z"/>
          <path class="cls-1" d="M48.42,83.95v4.2h-.7v-4.2h-1.75v-.7h4.2v.7h-1.75Z"/>
          <path class="cls-1" d="M56.23,86.4c0,.72-.11,1.19-.34,1.41s-.81.34-1.76.34-1.54-.11-1.76-.34-.34-.7-.34-1.41v-1.4c0-.72.11-1.19.34-1.41.23-.23.81-.34,1.76-.34s1.54.11,1.76.34c.23.23.34.7.34,1.41v1.4ZM52.72,86.4c0,.52.04.83.13.92.09.09.51.13,1.27.13s1.18-.04,1.27-.13c.09-.09.13-.39.13-.92v-1.4c0-.52-.04-.83-.13-.92s-.51-.13-1.27-.13-1.18.04-1.27.13c-.09.09-.13.39-.13.92v1.4Z"/>
          <path class="cls-1" d="M62.28,86.75c0,.48-.11.84-.34,1.06-.23.23-.75.34-1.59.34s-1.36-.11-1.59-.34-.34-.58-.34-1.06h.7c0,.29.04.48.13.57.09.09.45.13,1.09.13s1-.04,1.09-.13.13-.28.13-.57c0-.35-.53-.61-1.58-.77-1.05-.16-1.58-.61-1.58-1.33,0-.48.11-.84.34-1.06.23-.23.75-.34,1.59-.34s1.36.11,1.59.34c.23.23.34.58.34,1.06h-.7c0-.29-.04-.48-.13-.57-.09-.09-.45-.13-1.09-.13s-1,.04-1.09.13c-.09.09-.13.28-.13.57,0,.35.53.61,1.58.77s1.58.61,1.58,1.33Z"/>
        </g>
      </g>
    </g>
  </g>
</svg>