<?xml version="1.0" encoding="UTF-8"?>
<svg id="Capa_2" data-name="Capa 2" xmlns="http://www.w3.org/2000/svg" xmlns:xlink="http://www.w3.org/1999/xlink" viewBox="0 0 196.97 196.97">
  <defs>
    <style>
      .cls-1 {
        fill: #fdea14;
      }

      .cls-1, .cls-2, .cls-3, .cls-4, .cls-5 {
        stroke-width: 0px;
      }

      .cls-2 {
        fill: none;
      }

      .cls-3 {
        fill: #e20613;
      }

      .cls-6 {
        stroke: #c6c6c6;
        stroke-miterlimit: 10;
      }

      .cls-6, .cls-5 {
        fill: #fff;
      }

      .cls-4 {
        fill: #1d1d1b;
      }

      .cls-7 {
        clip-path: url(#clippath);
      }
    </style>
    <clipPath id="clippath">
      <circle class="cls-2" cx="98.48" cy="98.48" r="90.72"/>
    </clipPath>
  </defs>
  <g id="Capa_1-2" data-name="Capa 1">
    <g>
      <circle class="cls-6" cx="98.48" cy="98.48" r="97.98"/>
      <g class="cls-7">
        <rect class="cls-1" x="-8.67" y="-49.6" width="202.52" height="202.52" rx="31.18" ry="31.18"/>
        <rect class="cls-4" x="-14.68" y="103.28" width="226.34" height="110.44"/>
        <g>
          <rect class="cls-5" x="43.69" y="88.5" width="31.12" height="26.21"/>
          <rect class="cls-5" x="150.02" y="82.8" width="15.56" height="31.9"/>
          <rect class="cls-5" x="88.91" y="89.59" width="16.32" height="14.94"/>
          <g>
            <path class="cls-3" d="M69.4,113.59v-20.35c0-1.38-1.13-2.51-2.51-2.51s-2.51,1.13-2.51,2.51v20.35s-11.71,0-11.71,0l-.04-20.35c0-1.39-1.13-2.51-2.51-2.51s-2.51,1.13-2.51,2.51v20.35h-11.81v-18.74c0-7.9,6.43-14.32,14.32-14.32,3.03,0,5.91.96,8.39,2.78,2.48-1.82,5.36-2.78,8.39-2.78,7.9,0,14.33,6.43,14.33,14.32v18.74h-11.81Z"/>
            <path class="cls-5" d="M66.88,81.65c7.3,0,13.21,5.91,13.21,13.21v17.62h-9.58v-19.23c0-2-1.62-3.63-3.63-3.63s-3.63,1.62-3.63,3.63v19.23s-9.48,0-9.48,0l-.04-19.23c0-2-1.62-3.63-3.63-3.63s-3.63,1.62-3.63,3.63v19.23h-9.58v-17.62c0-7.29,5.91-13.21,13.21-13.21,3.2,0,6.1,1.19,8.39,3.08,2.29-1.9,5.18-3.08,8.39-3.08M66.88,79.42c-3,0-5.87.87-8.39,2.54-2.52-1.67-5.39-2.54-8.39-2.54-8.51,0-15.44,6.92-15.44,15.44v19.85h14.04v-21.46c0-.77.63-1.4,1.4-1.4s1.4.63,1.4,1.4l.04,19.24v2.23h13.96v-2.23s-.01-19.23-.01-19.23c0-.77.63-1.4,1.4-1.4s1.4.63,1.4,1.4v21.46h14.04v-19.85c0-8.51-6.93-15.44-15.44-15.44h0Z"/>
          </g>
          <g>
            <path class="cls-3" d="M160.36,113.59v-7.67h-5.2v7.67h-12.03v-18.92c0-7.98,6.56-14.47,14.63-14.47s14.63,6.49,14.63,14.47v18.92h-12.03ZM160.36,96.79v-3.75c0-1.41-1.16-2.55-2.6-2.55s-2.6,1.14-2.6,2.55v3.75h5.2Z"/>
            <path class="cls-5" d="M157.77,81.32c7.47,0,13.52,5.98,13.52,13.35v17.81h-9.8v-7.67h-7.43v7.67h-9.8v-17.81c0-7.37,6.05-13.35,13.52-13.35M154.05,97.9h7.43v-4.86c0-2.03-1.66-3.67-3.71-3.67s-3.71,1.64-3.71,3.67v4.86M157.77,79.09c-8.68,0-15.75,6.99-15.75,15.58v20.04h14.26v-7.67h2.97v7.67h14.26v-20.04c0-8.59-7.06-15.58-15.75-15.58h0ZM156.28,95.67v-2.63c0-.79.67-1.44,1.48-1.44s1.48.64,1.48,1.44v2.63h-2.97Z"/>
          </g>
          <g>
            <path class="cls-3" d="M91.95,113.49c-5.69,0-10.41-4.63-10.52-10.33v-12.46c.17-5.78,4.79-10.28,10.52-10.28h14.4v10.78h-14.1c-.21,0-.38.17-.38.38s.17.38.38.38h9.1v9.41h-9.1c-.21,0-.38.17-.38.38s.17.38.38.38h14.1v11.33h-14.4Z"/>
            <path class="cls-5" d="M105.23,81.55v8.55h-12.99c-.83,0-1.5.67-1.5,1.5s.67,1.5,1.5,1.5h7.99v7.18h-7.99c-.83,0-1.5.67-1.5,1.5s.67,1.5,1.5,1.5h12.99v9.1h-13.28c-5.14,0-9.3-4.12-9.41-9.24v-12.43c.15-5.08,4.29-9.16,9.41-9.16h13.28M107.46,79.32h-15.51c-6.34,0-11.45,4.98-11.63,11.33v12.5c.12,6.34,5.34,11.47,11.63,11.47h15.51v-13.56h-5v-8.72h5v-13.01h0Z"/>
          </g>
          <g>
            <rect class="cls-3" x="24.57" y="81.78" width="10.42" height="31.87"/>
            <path class="cls-5" d="M36.11,114.76h-12.65v-34.1h12.65v34.1ZM25.69,112.53h8.19v-29.64h-8.19v29.64Z"/>
          </g>
          <g>
            <path class="cls-3" d="M123.65,113.59c-10.44,0-18.94-7.49-18.94-16.69s8.5-16.69,18.94-16.69c8.77,0,16.33,5.25,18.39,12.77l.39,1.41h-11.77l-.33-.52c-1.34-2.14-3.9-3.47-6.68-3.47-4.2,0-7.61,2.92-7.61,6.51s3.41,6.51,7.61,6.51c2.89,0,5.5-1.4,6.8-3.66l.32-.56h11.7l-.36,1.39c-1.96,7.66-9.56,13.01-18.46,13.01Z"/>
            <path class="cls-5" d="M123.65,81.32c8.41,0,15.44,5.1,17.32,11.94h-9.69c-1.48-2.37-4.32-3.99-7.63-3.99-4.82,0-8.72,3.41-8.72,7.63s3.91,7.62,8.72,7.62c3.41,0,6.33-1.72,7.76-4.21h9.62c-1.78,6.96-8.88,12.17-17.38,12.17-9.84,0-17.82-6.98-17.82-15.58s7.98-15.58,17.82-15.58M123.65,79.09c-11.06,0-20.05,7.99-20.05,17.81s9,17.81,20.05,17.81c9.42,0,17.46-5.69,19.54-13.84l.71-2.78h-13.78l-.64,1.12c-1.1,1.91-3.34,3.1-5.83,3.1-3.58,0-6.49-2.42-6.49-5.39s2.91-5.4,6.49-5.4c2.4,0,4.6,1.13,5.73,2.94l.66,1.05h13.85l-.77-2.82c-2.19-8-10.2-13.59-19.47-13.59h0Z"/>
          </g>
        </g>
      </g>
    </g>
  </g>
</svg>